<svg xmlns="http://www.w3.org/2000/svg" viewBox="0 0 128 128"><path fill="#E44D26" d="M19.037 113.876L9.032 1.66h109.936l-10.016 112.2-45.02 12.48z"/><path fill="#F16529" d="M64 116.8l36.378-10.086 8.56-95.878H64z"/><path fill="#EBEBEB" d="M64 52.455H45.788L44.53 38.36H64V24.6H29.49l.33 3.69L33.2 66.22H64zm0 35.743l-.06.017-15.328-4.14-.98-10.975H33.817l1.928 21.61 28.193 7.825.063-.017z"/><path fill="#fff" d="M63.952 52.455v13.763H80.9L79.3 84.068l-15.35 4.142v14.32l28.215-7.82.207-2.326 3.234-36.233.335-3.695h-3.708zm0-27.856v13.76h33.244l.276-3.09.628-6.98.33-3.69z"/></svg>